# AST/ASF file generated using VICON BodyLanguage
# -----------------------------------------------
:version 1.10
:name VICON
:units
  mass 1.0
  length 0.45
  angle deg
:documentation
   .ast/.asf automatically generated from VICON data using
   VICON BodyBuilder and BodyLanguage model FoxedUp or BRILLIANT.MOD
:root
   order TX TY TZ RX RY RZ
   axis XYZ
   position 0 0 0  
   orientation 0 0 0 
:bonedata
  begin
     id 1 
     name lhipjoint
     direction 0.547975 -0.797114 0.253638 
     length 2.36201 
     axis 0 0 0  XYZ
  end
  begin
     id 2 
     name lfemur
     direction 0.34202 -0.939693 0  
     length 7.69075  
     axis 0 0 20  XYZ
    dof rx ry rz
    limits (-160.0 20.0)
           (-70.0 70.0)
           (-60.0 70.0)
  end
  begin
     id 3 
     name ltibia
     direction 0.34202 -0.939693 0   
     length 7.91399   
     axis 0 0 20   XYZ
    dof rx
    limits (-10.0 170.0)
  end
  begin
     id 4 
     name lfoot
     direction 0.0705293 -0.193778 0.978507   
     length 2.13618   
     axis -90 7.62852e-016 20   XYZ
    dof rx rz
    limits (-45.0 90.0)
           (-70.0 20.0)
  end
  begin
     id 5 
     name ltoes
     direction 1.53592e-011 -4.21925e-011 1   
     length 1.07518   
     axis -90 7.62852e-016 20   XYZ
    dof rx
    limits (-90.0 20.0)
  end
  begin
     id 6 
     name rhipjoint
     direction -0.57 -0.782963 0.249136   
     length 2.4047  
     axis 0 0 0  XYZ 
  end
  begin
     id 7 
     name rfemur
     direction -0.34202 -0.939693 0   
     length 7.51486   
     axis 0 0 -20   XYZ
    dof rx ry rz
    limits (-160.0 20.0)
           (-70.0 70.0)
           (-70.0 60.0)
  end
  begin
     id 8 
     name rtibia
     direction -0.34202 -0.939693 0   
     length 8.08317   
     axis 0 0 -20   XYZ
    dof rx
    limits (-10.0 170.0)
 end
 begin
     id 9 
     name rfoot
     direction -0.104954 -0.281256 0.953876   
     length 2.30343  
     axis -90 -7.62852e-016 -20   XYZ
    dof rx rz
    limits (-45.0 90.0)
           (-20.0 70.0)
  end
  begin
     id 10 
     name rtoes
     direction -1.53556e-011 -4.21922e-011 1   
     length 1.14803   
     axis -90 -7.62852e-016 -20   XYZ
    dof rx
    limits (-90.0 20.0)
  end
  begin
     id 11 
     name lowerback
     direction -0.0152855 0.99353 -0.11254   
     length 2.05311   
     axis 0 0 0   XYZ
    dof rx ry rz
    limits (-20.0 45.0)
           (-30.0 30.0)
           (-30.0 30.0)
  end
  begin
     id 12 
     name upperback
     direction -0.00157509 0.999443 -0.033332   
     length 2.06353   
     axis 0 0 0   XYZ
    dof rx ry rz
    limits (-20.0 45.0)
           (-30.0 30.0)
           (-30.0 30.0)
  end
  begin
     id 13 
     name thorax
     direction 0.00577788 0.999804 0.0189484   
     length 2.08472   
     axis 0 0 0   XYZ
    dof rx ry rz
    limits (-20.0 45.0)
           (-30.0 30.0)
           (-30.0 30.0)
  end
  begin
     id 14 
     name lowerneck
     direction -1.09301e-005 0.994719 0.10264   
     length 1.76249   
     axis 0 0 0   XYZ
    dof rx ry rz
    limits (-20.0 45.0)
           (-30.0 30.0)
           (-30.0 30.0)
  end
  begin
     id 15 
     name upperneck
     direction 0.0495018 0.988526 -0.142706   
     length 1.77897   
     axis 0 0 0   XYZ
    dof rx ry rz
    limits (-20.0 45.0)
           (-30.0 30.0)
           (-30.0 30.0)
  end
  begin
     id 16
     name head
     direction 0.0142736 0.998114 -0.0597101  
     length 1.78934  
     axis 0 0 0   XYZ
    dof rx ry rz
    limits (-20.0 45.0)
           (-30.0 30.0)
           (-30.0 30.0)
  end
  begin
     id 17 
     name lclavicle
     direction 0.918111 0.396107 -0.0130883  
     length 3.37276  
     axis 0 0 0   XYZ
    dof ry rz
    limits (-20.0 10.0)
           (0.0 20.0)
  end
  begin
     id 18 
     name lhumerus
     direction 1 -4.48975e-011 -3.26108e-027   
     length 5.34298   
     axis 180 -30 -90   XYZ
    dof rx ry rz
    limits (-60.0 90.0)
           (-90.0 90.0)
           (-90.0 90.0)
  end
  begin
     id 19
     name lradius
     direction 1 -4.48964e-011 -8.84413e-028   
     length 3.67262   
     axis 180 -30 -90   XYZ
    dof rx
    limits (-10.0 170.0)
  end
  begin
     id 20
     name lwrist
     direction 1 -4.48991e-011 -1.24264e-027   
     length 1.83631   
     axis -2.17013e-015 90 90   XYZ
    dof ry
    limits (-180.0 0.0)
 end
  begin
     id 21 
     name lhand
     direction 1 -4.48855e-011 -2.48528e-027   
     length 0.599298   
     axis 1.58582e-015 90 90   XYZ
    dof rx rz
    limits (-90.0 90.0)
           (-45.0 45.0)
  end
  begin
     id 22 
     name lfingers
     direction 1 -4.48811e-011 -4.97056e-027   
     length 0.48317   
     axis 3.17164e-015 90 90   XYZ
    dof rx
    limits (0.0 90.0)
  end
  begin
     id 23
     name lthumb
     direction 0.707107 -6.34882e-011 0.707107   
     length 0.693738   
     axis -90 45 2.85299e-015   XYZ
    dof rx rz
    limits (-45.0 45.0)
           (-45.0 45.0)
  end
  begin
     id 24 
     name rclavicle
     direction -0.920511 0.384752 -0.0680135   
     length 3.43787  
     axis 0 0 0   XYZ 
    dof ry rz
    limits (-10.0 20.0)
           (-20.0 0.0)
  end
  begin
     id 25 
     name rhumerus
     direction -0.999976 -0.00330524 0.00603274  
     length 5.5498   
     axis 180 30 90   XYZ
    dof rx ry rz
    limits (-90.0 60.0)
           (-90.0 90.0)
           (-90.0 90.0)
  end
  begin
     id 26 
     name rradius
     direction -1 -4.48967e-011 8.62438e-027   
     length 3.69401   
     axis 180 30 90   XYZ
    dof rx
    limits (-10.0 170.0)
  end
  begin
     id 27 
     name rwrist
     direction -1 -4.4897e-011 9.54866e-027   
     length 1.84701   
     axis -7.69462e-015 -90 -90   XYZ
    dof ry
    limits (-180.0 0.0)
  end
  begin
     id 28
     name rhand
     direction -1 -4.48982e-011 1.90973e-026   
     length 0.638113   
     axis -1.21857e-014 -90 -90   XYZ
    dof rx rz
    limits (-90.0 90.0)
           (-45.0 45.0)
  end
  begin
     id 29
     name rfingers
     direction -1 -4.48936e-011 3.81946e-026   
     length 0.514463   
     axis -2.43714e-014 -90 -90   XYZ
    dof rx
    limits (0.0 90.0)
  end
  begin
     id 30
     name rthumb
     direction -0.707107 -6.34942e-011 0.707107   
     length 0.738669   
     axis -90 -45 -2.85299e-015   XYZ
    dof rx rz
    limits (-45.0 45.0)
           (-45.0 45.0)
  end
:hierarchy
  begin
    root lhipjoint rhipjoint lowerback
    lhipjoint lfemur
    lfemur ltibia
    ltibia lfoot
    lfoot ltoes
    rhipjoint rfemur
    rfemur rtibia
    rtibia rfoot
    rfoot rtoes
    lowerback upperback
    upperback thorax
    thorax lowerneck lclavicle rclavicle
    lowerneck upperneck
    upperneck head
    lclavicle lhumerus
    lhumerus lradius
    lradius lwrist
    lwrist lhand lthumb
    lhand lfingers
    rclavicle rhumerus
    rhumerus rradius
    rradius rwrist
    rwrist rhand rthumb
    rhand rfingers
  end

#!OML:ASF F:\twosubjects\two\Thursday\Session 1\Rory.ASF
:FULLY-SPECIFIED
:DEGREES
82
root 7.35286 10.8133 10.2917 172.69 4.92589 173.248
lowerback 38.1047 0.213154 -8.02691
upperback 10.0549 0.720458 -3.83707
thorax -7.29188 1.98943 -0.388341
lowerneck -12.1037 -5.45292 -3.96705
upperneck -10.5246 -5.17096 8.44464
head -0.941848 -1.87539 3.26022
rclavicle 3.33958e-014 6.08281e-014
rhumerus -6.25385 5.45647 -70.0863
rradius 111.315
rwrist 7.61968
rhand -29.594 32.6158
rfingers 7.12502
rthumb -2.92538 2.65608
lclavicle 3.33958e-014 6.08281e-014
lhumerus -7.34956 -15.1662 51.5463
lradius 109.774
lwrist -18.5005
lhand 0.945263 24.001
lfingers 7.12502
lthumb 26.4955 52.1685
rfemur -85.4101 -18.1836 4.35385
rtibia 102.647
rfoot -4.57874 -0.506519
rtoes 5.00219
lfemur -74.1801 26.1016 -8.12673
ltibia 97.9784
lfoot -3.84508 -17.2589
ltoes -1.18156
83
root 7.35285 10.8151 10.3021 172.476 4.9711 173.095
lowerback 38.1079 0.276931 -8.37656
upperback 9.95927 0.628961 -3.76502
thorax -7.38251 1.9329 -0.100514
lowerneck -12.2591 -5.49531 -4.15746
upperneck -10.3178 -5.23269 8.47471
head -0.837373 -1.90322 3.29691
rclavicle -4.35338e-014 -5.1684e-014
rhumerus -6.51054 7.53253 -70.0904
rradius 111.07
rwrist 9.13401
rhand -29.9715 31.6743
rfingers 7.12502
rthumb -3.28996 1.71996
lclavicle -4.35338e-014 -5.1684e-014
lhumerus -8.04034 -16.1785 51.5919
lradius 109.892
lwrist -18.6114
lhand 1.81235 23.678
lfingers 7.12502
lthumb 27.3251 51.7176
rfemur -85.2332 -17.9699 4.02761
rtibia 102.658
rfoot -4.25583 -0.112682
rtoes 0.720898
lfemur -74.0747 26.0028 -8.05597
ltibia 97.9692
lfoot -4.716 -17.8408
ltoes -15.5077
84
root 7.35534 10.82 10.3204 172.165 5.03805 172.669
lowerback 36.7864 -0.293181 -8.21744
upperback 10.9016 0.396533 -4.73275
thorax -5.87578 1.91528 -1.04793
lowerneck -12.7628 -5.57191 -3.59305
upperneck -10.7305 -5.21301 9.13185
head -0.887244 -1.8501 3.41713
rclavicle -3.97569e-016 1.07344e-014
rhumerus -5.67317 8.48946 -71.1992
rradius 110.765
rwrist 10.1582
rhand -29.5247 33.4578
rfingers 7.12502
rthumb -2.85848 3.49722
lclavicle -3.97569e-016 1.07344e-014
lhumerus -7.16772 -16.7616 49.9212
lradius 109.734
lwrist -18.6642
lhand 1.65476 23.0263
lfingers 7.12502
lthumb 27.1744 51.0895
rfemur -84.9988 -17.8272 3.43566
rtibia 102.655
rfoot -4.14389 0.286258
rtoes 1.25517
lfemur -73.7984 25.7092 -8.01173
ltibia 97.9496
lfoot -3.47645 -17.0245
ltoes -10.6473
85
root 7.36591 10.8279 10.3486 171.715 5.14525 172.438
lowerback 37.0123 -0.0488919 -8.93723
upperback 10.8971 0.459712 -4.55625
thorax -5.92237 1.94296 -0.524778
lowerneck -13.1544 -5.68431 -4.1819
upperneck -10.3853 -5.3086 9.49614
head -0.67033 -1.86872 3.63809
rclavicle -3.45885e-014 -7.31528e-014
rhumerus -6.13172 10.0082 -70.8327
rradius 110.927
rwrist 10.5742
rhand -30.7365 37.3161
rfingers 7.12502
rthumb -4.02873 7.37445
lclavicle -3.45885e-014 -7.31528e-014
lhumerus -7.65673 -17.8562 49.9642
lradius 109.73
lwrist -18.6214
lhand 2.05667 23.0331
lfingers 7.12502
lthumb 27.5588 51.0356
rfemur -84.6522 -17.5223 2.97648
rtibia 102.662
rfoot -3.86669 0.716014
rtoes 0.591174
lfemur -73.2428 25.3947 -7.62766
ltibia 97.7839
lfoot -3.98315 -17.4542
ltoes -25.1672
86
root 7.37748 10.8343 10.3833 171.121 5.27738 172.813
lowerback 37.3498 0.0236844 -8.76027
upperback 11.0188 0.670697 -4.50983
thorax -5.9154 2.07473 -0.652701
lowerneck -13.2665 -5.87054 -4.20745
upperneck -10.416 -5.51904 9.81368
head -0.634187 -1.95867 3.74227
rclavicle 2.0276e-014 3.1408e-014
rhumerus -6.77595 10.8972 -70.9404
rradius 111.377
rwrist 10.9437
rhand -34.3536 30.8204
rfingers 7.12502
rthumb -7.52084 0.974132
lclavicle 2.0276e-014 3.1408e-014
lhumerus -7.52133 -19.1854 49.7565
lradius 109.712
lwrist -18.7499
lhand 2.60974 23.6165
lfingers 7.12502
lthumb 28.0876 51.5335
rfemur -84.0555 -16.8397 2.90513
rtibia 102.683
rfoot -3.35401 1.26855
rtoes -3.98015
lfemur -72.5056 25.3152 -6.66627
ltibia 97.5406
lfoot -3.0248 -17.7972
ltoes -22.4581
87
root 7.38051 10.8344 10.4114 170.938 5.38581 173.486
lowerback 37.3482 -0.0726315 -8.10321
upperback 11.2328 0.873023 -4.49314
thorax -5.71274 2.19663 -1.03678
lowerneck -14.3715 -6.12152 -3.77641
upperneck -10.1223 -5.84552 9.76026
head -0.34825 -2.0741 3.59871
rclavicle 3.22031e-014 5.48646e-014
rhumerus -6.95413 11.4214 -71.336
rradius 111.549
rwrist 11.7219
rhand -37.0592 23.7775
rfingers 7.12502
rthumb -10.1318 -5.95855
lclavicle 3.22031e-014 5.48646e-014
lhumerus -7.10139 -20.2726 49.6061
lradius 109.422
lwrist -19.6105
lhand 2.52399 23.3755
lfingers 7.12502
lthumb 28.0056 51.3059
rfemur -83.8393 -16.0727 2.90081
rtibia 102.733
rfoot -2.68866 1.90142
rtoes -5.21013
lfemur -72.3533 25.2921 -5.54983
ltibia 97.4409
lfoot -2.13524 -18.3037
ltoes -20.9766
